<svg width="20" height="20" viewBox="0 0 20 20" fill="none" xmlns="http://www.w3.org/2000/svg">
<path d="M13.3274 0.863001C13.8674 0.551419 14.4839 0.397506 15.107 0.418744C15.73 0.439982 16.3347 0.63552 16.8522 0.983148C17.3697 1.33078 17.7793 1.81656 18.0346 2.38532C18.2898 2.95409 18.3804 3.58304
 18.2962 4.20073C18.2119 4.81843 17.9561 5.40011 17.5578 5.87971C17.1595 6.35932
16.6347 6.71762 16.043 6.91392C15.4513 7.11022 14.8164 7.13665 14.2105 6.99021C13.6045
6.84378 13.0517 6.53034 12.6149 6.0855L7.38161 9.10717C7.46328 9.40328 7.50356 9.70106
7.50245 10.0005C7.50245 10.2988 7.46328 10.5997 7.38161 10.8938L12.6149 13.9155C13.184
13.3384 13.9437 12.9883 14.7521 12.9306C15.5605 12.8729 16.3622 13.1115 17.0075
13.6019C17.6528 14.0923 18.0974 14.8008 18.2582 15.5952C18.4191 16.3895 18.2852 17.2152
17.8816 17.918C17.4767 18.622 16.8286 19.154 16.0592 19.4139C15.2898 19.6739 14.4519
19.644 13.703 19.3299C12.954 19.0158 12.3455 18.4391 11.9917 17.708C11.6379 16.977
11.5632 16.1419 11.7816 15.3597L6.54828 12.3372C6.08432 12.8096 5.49021 13.1333 4.84165
13.2669C4.19309 13.4005 3.51943 13.338 2.90651 13.0874C2.29359 12.8368 1.76915 12.4094
1.40001 11.8596C1.03087 11.3099 0.83374 10.6627 0.83374 10.0005C0.83374 9.33832 1.03087
8.69112 1.40001 8.14138C1.76915 7.59163 2.29359 7.16422 2.90651 6.91359C3.51943 6.66297
4.19309 6.60048 4.84165 6.73409C5.49021 6.8677 6.08432 7.19136 6.54828 7.66383L11.7816
4.64217C11.5838 3.93 11.6283 3.1723 11.9082 2.4882C12.188 1.8041 12.6873 1.2324
13.3274 0.863001ZM16.4374 2.91717C16.3288 2.72609 16.1834 2.55839 16.0097 2.42372C15.836
2.28905 15.6374 2.19007 15.4253 2.13248C15.2131 2.07489 14.9917 2.05983 14.7738
2.08816C14.5558 2.11649 14.3456 2.18766 14.1552 2.29756C13.9649 2.40746 13.7982 2.55393
13.6646 2.72854C13.5311 2.90314 13.4335 3.10243 13.3773 3.31492C13.3211 3.52742 13.3075
3.74894 13.3373 3.96671C13.3671 4.18448 13.4396 4.39422 13.5508 4.58383C13.7734 4.96351 
14.1371 5.23974 14.5626 5.35223C14.9881 5.46472 15.4408 5.40435 15.8219 5.18429C16.2031 
4.96423 16.4817 4.60235 16.597 4.17761C16.7123 3.75287 16.655 3.29976 16.4374 2.91717ZM2.56078 
10.4397C2.62833 10.6854 2.7513 10.9125 2.92024 11.1033C3.08917 11.2942 3.2996 11.4438 3.53535 
11.5406C3.7711 11.6375 4.02592 11.6791 4.28023 11.6622C4.53455 11.6452 4.78161 11.5703 5.00245 
11.443C5.27206 11.2872 5.49262 11.0589 5.63912 10.7841C5.78563 10.5093 5.85221 10.199 5.83133 
9.88828C5.81045 9.57758 5.70294 9.27893 5.52099 9.02621C5.33904 8.77349 5.08992 8.5768 4.80189 8.45844C4.51385 8.34008 4.19842 8.30478 3.89134 8.35655C3.58427 8.40832 3.29784 8.54509 3.06453 8.75134C2.83122 8.9576 2.66036 9.22509 2.57133 9.5235C2.48229 9.82191 2.47864 10.1393 2.56078 10.4397ZM15.8274 14.808C15.6378 14.6968 15.4281 14.6243 15.2103 14.5945C14.9925 14.5647 14.771 14.5783 14.5585 14.6345C14.346 14.6907 14.1467 14.7883 13.9721 14.9219C13.7975 15.0554 13.6511 15.2221 13.5412 15.4125C13.4313 15.6028 13.3601 15.813 13.3318 16.031C13.3034 16.249 13.3185 16.4704 13.3761 16.6825C13.4337 16.8946 13.5327 17.0932 13.6673 17.267C13.802 17.4407 13.9697 17.586 14.1608 17.6947C14.5434 17.9122 14.9965 17.9696 15.4212 17.8542C15.846 17.7389 16.2078 17.4603 16.4279 17.0792C16.648 16.698 16.7083 16.2453 16.5958 15.8198C16.4833 15.3943 16.2071 15.0306 15.8274 14.808Z" fill="#5EF6FF"/>
</svg>
